<svg width="95" height="25" viewBox="0 0 95 25" fill="none" xmlns="http://www.w3.org/2000/svg">
<path d="M1.59375 1.25V24H0.75V1.25H1.59375ZM13.7656 7.09375V7.95312H5.9375V7.09375H13.7656ZM9.0625 2.53125H9.92188V19.9531C9.92188 20.9427 10.0365 21.6927 10.2656 22.2031C10.5052 22.7031 10.8177 23.0417 11.2031 23.2188C11.599 23.3854 12.0208 23.4688 12.4688 23.4688C12.7917 23.4688 13.0781 23.4583 13.3281 23.4375C13.5781 23.4062 13.849 23.3698 14.1406 23.3281L14.2812 24.125C14.0521 24.1979 13.7552 24.2448 13.3906 24.2656C13.026 24.2969 12.7344 24.3125 12.5156 24.3125C11.7969 24.3125 11.1771 24.1875 10.6562 23.9375C10.1458 23.6771 9.75 23.2292 9.46875 22.5938C9.19792 21.9583 9.0625 21.0781 9.0625 19.9531V2.53125ZM28.7656 20.8281V12.0938C28.7656 11.1562 28.5625 10.3542 28.1562 9.6875C27.7604 9.02083 27.1771 8.51042 26.4062 8.15625C25.6458 7.80208 24.7135 7.625 23.6094 7.625C22.5885 7.625 21.6667 7.80729 20.8438 8.17188C20.0312 8.52604 19.3854 9.01562 18.9062 9.64062C18.4375 10.2656 18.2031 10.9688 18.2031 11.75L17.3594 11.7188C17.3594 11.0625 17.5104 10.4375 17.8125 9.84375C18.125 9.25 18.5573 8.72396 19.1094 8.26562C19.6719 7.80729 20.3333 7.44792 21.0938 7.1875C21.8646 6.91667 22.7031 6.78125 23.6094 6.78125C24.7865 6.78125 25.8229 6.97917 26.7188 7.375C27.625 7.77083 28.3333 8.36458 28.8438 9.15625C29.3542 9.94792 29.6094 10.9375 29.6094 12.125V20.5938C29.6094 21.1979 29.6458 21.8073 29.7188 22.4219C29.8021 23.0365 29.9115 23.5156 30.0469 23.8594V24H29.0781C28.974 23.5938 28.8958 23.1042 28.8438 22.5312C28.7917 21.9479 28.7656 21.3802 28.7656 20.8281ZM29.1406 14.5625L29.1719 15.4219H24.7656C23.6719 15.4219 22.6927 15.5312 21.8281 15.75C20.9635 15.9583 20.2292 16.2552 19.625 16.6406C19.0208 17.026 18.5573 17.4844 18.2344 18.0156C17.9115 18.5469 17.75 19.1354 17.75 19.7812C17.75 20.4583 17.9323 21.0781 18.2969 21.6406C18.6719 22.2031 19.1875 22.651 19.8438 22.9844C20.5 23.3177 21.2552 23.4844 22.1094 23.4844C23.2969 23.4844 24.349 23.2917 25.2656 22.9062C26.1823 22.5104 26.9583 21.9583 27.5938 21.25C28.2292 20.5417 28.7135 19.7031 29.0469 18.7344L29.4219 19.5156C29.224 20.099 28.9271 20.6771 28.5312 21.25C28.1458 21.8125 27.651 22.3281 27.0469 22.7969C26.4427 23.2552 25.7292 23.625 24.9062 23.9062C24.0938 24.1771 23.1615 24.3125 22.1094 24.3125C21.0573 24.3125 20.1406 24.1198 19.3594 23.7344C18.5781 23.3385 17.974 22.7969 17.5469 22.1094C17.1198 21.4115 16.9062 20.6146 16.9062 19.7188C16.9062 18.9688 17.0833 18.2812 17.4375 17.6562C17.7917 17.0208 18.3021 16.474 18.9688 16.0156C19.6458 15.5469 20.4688 15.1875 21.4375 14.9375C22.4062 14.6875 23.5 14.5625 24.7188 14.5625H29.1406ZM36.1094 0V24H35.2656V0H36.1094ZM42.7031 7.09375V24H41.8594V7.09375H42.7031ZM41.4219 1.8125C41.4219 1.57292 41.5052 1.36979 41.6719 1.20312C41.8385 1.02604 42.0417 0.9375 42.2812 0.9375C42.5208 0.9375 42.724 1.02604 42.8906 1.20312C43.0677 1.36979 43.1562 1.57292 43.1562 1.8125C43.1562 2.05208 43.0677 2.25521 42.8906 2.42188C42.724 2.58854 42.5208 2.67188 42.2812 2.67188C42.0417 2.67188 41.8385 2.58854 41.6719 2.42188C41.5052 2.25521 41.4219 2.05208 41.4219 1.8125ZM58.8594 20.8281V12.0938C58.8594 11.1562 58.6562 10.3542 58.25 9.6875C57.8542 9.02083 57.2708 8.51042 56.5 8.15625C55.7396 7.80208 54.8073 7.625 53.7031 7.625C52.6823 7.625 51.7604 7.80729 50.9375 8.17188C50.125 8.52604 49.4792 9.01562 49 9.64062C48.5312 10.2656 48.2969 10.9688 48.2969 11.75L47.4531 11.7188C47.4531 11.0625 47.6042 10.4375 47.9062 9.84375C48.2188 9.25 48.651 8.72396 49.2031 8.26562C49.7656 7.80729 50.4271 7.44792 51.1875 7.1875C51.9583 6.91667 52.7969 6.78125 53.7031 6.78125C54.8802 6.78125 55.9167 6.97917 56.8125 7.375C57.7188 7.77083 58.4271 8.36458 58.9375 9.15625C59.4479 9.94792 59.7031 10.9375 59.7031 12.125V20.5938C59.7031 21.1979 59.7396 21.8073 59.8125 22.4219C59.8958 23.0365 60.0052 23.5156 60.1406 23.8594V24H59.1719C59.0677 23.5938 58.9896 23.1042 58.9375 22.5312C58.8854 21.9479 58.8594 21.3802 58.8594 20.8281ZM59.2344 14.5625L59.2656 15.4219H54.8594C53.7656 15.4219 52.7865 15.5312 51.9219 15.75C51.0573 15.9583 50.3229 16.2552 49.7188 16.6406C49.1146 17.026 48.651 17.4844 48.3281 18.0156C48.0052 18.5469 47.8438 19.1354 47.8438 19.7812C47.8438 20.4583 48.026 21.0781 48.3906 21.6406C48.7656 22.2031 49.2812 22.651 49.9375 22.9844C50.5938 23.3177 51.349 23.4844 52.2031 23.4844C53.3906 23.4844 54.4427 23.2917 55.3594 22.9062C56.276 22.5104 57.0521 21.9583 57.6875 21.25C58.3229 20.5417 58.8073 19.7031 59.1406 18.7344L59.5156 19.5156C59.3177 20.099 59.0208 20.6771 58.625 21.25C58.2396 21.8125 57.7448 22.3281 57.1406 22.7969C56.5365 23.2552 55.8229 23.625 55 23.9062C54.1875 24.1771 53.2552 24.3125 52.2031 24.3125C51.151 24.3125 50.2344 24.1198 49.4531 23.7344C48.6719 23.3385 48.0677 22.7969 47.6406 22.1094C47.2135 21.4115 47 20.6146 47 19.7188C47 18.9688 47.1771 18.2812 47.5312 17.6562C47.8854 17.0208 48.3958 16.474 49.0625 16.0156C49.7396 15.5469 50.5625 15.1875 51.5312 14.9375C52.5 14.6875 53.5938 14.5625 54.8125 14.5625H59.2344ZM66 10.7031V24H65.1562V7.09375H66V10.7031ZM65.8594 14.0938L65.4062 13.2031C65.5104 12.3698 65.7396 11.5729 66.0938 10.8125C66.4479 10.0417 66.9115 9.35417 67.4844 8.75C68.0573 8.14583 68.724 7.66667 69.4844 7.3125C70.2448 6.95833 71.0833 6.78125 72 6.78125C72.8542 6.78125 73.6146 6.90104 74.2812 7.14062C74.9479 7.36979 75.5104 7.73958 75.9688 8.25C76.4271 8.75 76.776 9.39583 77.0156 10.1875C77.2552 10.9792 77.375 11.9375 77.375 13.0625V24H76.5312V13.0625C76.5312 11.625 76.3333 10.5156 75.9375 9.73438C75.5521 8.94271 75.0156 8.39062 74.3281 8.07812C73.6406 7.76562 72.849 7.60938 71.9531 7.60938C70.8906 7.60938 69.9792 7.84896 69.2188 8.32812C68.4688 8.79688 67.849 9.38542 67.3594 10.0938C66.8802 10.8021 66.5156 11.5208 66.2656 12.25C66.026 12.9792 65.8906 13.5938 65.8594 14.0938ZM93.2969 20.8281V12.0938C93.2969 11.1562 93.0938 10.3542 92.6875 9.6875C92.2917 9.02083 91.7083 8.51042 90.9375 8.15625C90.1771 7.80208 89.2448 7.625 88.1406 7.625C87.1198 7.625 86.1979 7.80729 85.375 8.17188C84.5625 8.52604 83.9167 9.01562 83.4375 9.64062C82.9688 10.2656 82.7344 10.9688 82.7344 11.75L81.8906 11.7188C81.8906 11.0625 82.0417 10.4375 82.3438 9.84375C82.6562 9.25 83.0885 8.72396 83.6406 8.26562C84.2031 7.80729 84.8646 7.44792 85.625 7.1875C86.3958 6.91667 87.2344 6.78125 88.1406 6.78125C89.3177 6.78125 90.3542 6.97917 91.25 7.375C92.1562 7.77083 92.8646 8.36458 93.375 9.15625C93.8854 9.94792 94.1406 10.9375 94.1406 12.125V20.5938C94.1406 21.1979 94.1771 21.8073 94.25 22.4219C94.3333 23.0365 94.4427 23.5156 94.5781 23.8594V24H93.6094C93.5052 23.5938 93.4271 23.1042 93.375 22.5312C93.3229 21.9479 93.2969 21.3802 93.2969 20.8281ZM93.6719 14.5625L93.7031 15.4219H89.2969C88.2031 15.4219 87.224 15.5312 86.3594 15.75C85.4948 15.9583 84.7604 16.2552 84.1562 16.6406C83.5521 17.026 83.0885 17.4844 82.7656 18.0156C82.4427 18.5469 82.2812 19.1354 82.2812 19.7812C82.2812 20.4583 82.4635 21.0781 82.8281 21.6406C83.2031 22.2031 83.7188 22.651 84.375 22.9844C85.0312 23.3177 85.7865 23.4844 86.6406 23.4844C87.8281 23.4844 88.8802 23.2917 89.7969 22.9062C90.7135 22.5104 91.4896 21.9583 92.125 21.25C92.7604 20.5417 93.2448 19.7031 93.5781 18.7344L93.9531 19.5156C93.7552 20.099 93.4583 20.6771 93.0625 21.25C92.6771 21.8125 92.1823 22.3281 91.5781 22.7969C90.974 23.2552 90.2604 23.625 89.4375 23.9062C88.625 24.1771 87.6927 24.3125 86.6406 24.3125C85.5885 24.3125 84.6719 24.1198 83.8906 23.7344C83.1094 23.3385 82.5052 22.7969 82.0781 22.1094C81.651 21.4115 81.4375 20.6146 81.4375 19.7188C81.4375 18.9688 81.6146 18.2812 81.9688 17.6562C82.3229 17.0208 82.8333 16.474 83.5 16.0156C84.1771 15.5469 85 15.1875 85.9688 14.9375C86.9375 14.6875 88.0312 14.5625 89.25 14.5625H93.6719Z" fill="white"/>
</svg>
